<?xml version="1.0" standalone="no"?>
<!DOCTYPE svg PUBLIC "-//W3C//DTD SVG 20010904//EN"
 "http://www.w3.org/TR/2001/REC-SVG-20010904/DTD/svg10.dtd">
<svg version="1.0" xmlns="http://www.w3.org/2000/svg"
 width="652.000000pt" height="652.000000pt" viewBox="0 0 652.000000 652.000000"
 preserveAspectRatio="xMidYMid meet">
<metadata>
Created by potrace 1.14, written by Peter Selinger 2001-2017
</metadata>
<g transform="translate(0.000000,652.000000) scale(0.100000,-0.100000)"
fill="#000000" stroke="none">
<path d="M1684 5404 c-27 -14 -53 -29 -58 -34 -6 -6 -22 -10 -37 -10 -15 0
-51 -11 -81 -25 -76 -35 -91 -33 -149 26 l-50 50 -82 -5 c-155 -10 -198 -17
-218 -37 -10 -10 -19 -21 -19 -24 0 -3 -11 -18 -25 -33 -14 -15 -25 -34 -25
-43 0 -8 -3 -19 -7 -23 -5 -4 -9 -35 -9 -69 -1 -34 -6 -80 -12 -102 -9 -32 -8
-44 3 -62 18 -26 19 -53 4 -53 -27 0 35 -160 71 -183 11 -6 20 -19 20 -27 1
-20 24 -50 39 -50 6 0 11 -4 11 -10 0 -19 28 2 34 26 4 14 17 29 29 33 12 5
37 15 55 22 19 7 39 17 45 23 33 33 86 66 104 66 21 0 63 -39 63 -59 0 -28 19
2 25 41 4 23 21 64 38 91 26 43 31 59 29 110 -3 100 43 167 69 100 18 -49 88
-99 103 -74 6 9 47 8 127 -4 42 -7 48 -5 54 14 8 28 51 29 58 1 5 -18 39 -38
75 -46 20 -4 20 -5 24 -49 3 -38 2 -40 -22 -36 -14 1 -28 8 -31 13 -11 17 -39
1 -39 -21 0 -11 -4 -21 -8 -23 -17 -6 -61 -82 -54 -92 3 -6 7 -17 9 -25 1 -7
14 -26 29 -42 15 -16 25 -31 22 -34 -8 -8 17 -100 31 -117 62 -72 63 -78 19
-76 -66 2 -128 19 -128 36 0 10 -7 26 -16 37 -75 102 -153 178 -173 169 -9 -4
-47 -10 -86 -14 -38 -5 -92 -11 -120 -14 -39 -5 -58 -2 -89 13 -37 19 -40 19
-52 3 -7 -9 -14 -21 -14 -27 -1 -12 -86 -75 -101 -75 -8 0 -9 -16 -5 -49 3
-27 2 -60 -3 -75 -6 -14 -11 -40 -12 -58 -2 -35 21 -129 33 -138 3 -3 8 -26
10 -50 2 -35 8 -47 25 -55 16 -7 29 -31 47 -91 15 -45 26 -94 26 -108 0 -33
19 -115 33 -141 43 -83 76 -154 80 -175 8 -47 12 -55 30 -68 9 -7 17 -21 17
-31 0 -10 16 -48 35 -85 19 -37 35 -71 35 -76 0 -21 55 -90 72 -90 12 0 18 -7
18 -25 0 -36 21 -75 40 -75 10 0 23 -6 29 -14 7 -8 23 -17 36 -20 32 -8 41
-45 21 -84 -18 -34 -21 -68 -7 -76 5 -4 12 -30 15 -59 13 -104 28 -183 42
-214 8 -17 14 -34 14 -38 0 -15 56 -70 73 -71 9 -1 17 2 17 6 0 4 17 10 37 13
40 7 63 -5 63 -33 0 -17 38 -40 65 -40 7 0 15 -12 17 -27 2 -21 10 -29 36 -35
26 -7 32 -13 32 -37 0 -38 -57 -81 -109 -81 -10 0 -30 -10 -45 -21 -23 -18
-36 -21 -77 -16 -43 5 -52 3 -75 -18 -15 -14 -31 -25 -36 -25 -24 0 -51 -41
-50 -75 1 -29 -2 -35 -19 -35 -20 0 -20 0 1 -22 12 -13 20 -35 20 -55 0 -23 5
-33 16 -33 11 0 14 -8 12 -28 -2 -15 -8 -26 -15 -25 -6 2 -14 -6 -18 -16 -3
-10 -15 -23 -28 -29 -12 -6 -16 -11 -9 -11 22 -2 13 -37 -18 -66 -16 -16 -30
-37 -30 -46 0 -10 -7 -25 -16 -34 -11 -11 -16 -33 -15 -78 0 -34 -5 -90 -11
-125 -10 -55 -16 -66 -41 -79 -22 -11 -26 -17 -17 -23 7 -5 19 -6 26 -3 17 6
24 -8 35 -78 7 -41 6 -65 0 -73 -8 -9 -5 -24 9 -51 11 -22 20 -47 20 -56 0
-25 17 -35 105 -60 44 -13 85 -30 92 -38 9 -13 10 -11 6 11 -5 26 -4 26 48 25
51 -2 54 -3 57 -30 3 -22 -1 -30 -17 -34 -20 -5 -20 -6 -4 -18 10 -7 20 -9 23
-4 3 4 15 10 25 12 11 2 28 7 37 12 10 4 31 3 46 -3 22 -8 31 -6 38 5 10 17
47 26 112 27 27 0 42 5 42 14 0 18 38 30 84 26 34 -3 43 1 72 31 18 19 35 35
38 35 15 0 51 48 48 66 -3 20 57 94 76 94 6 0 8 8 5 18 -2 10 7 31 21 47 14
17 26 33 26 36 0 4 8 9 19 12 11 3 21 17 25 38 3 19 8 45 11 58 2 14 8 27 12
30 14 10 43 72 43 90 0 9 5 22 12 29 6 6 12 22 14 34 1 13 7 49 12 81 5 32 10
97 11 144 2 56 11 119 27 177 17 61 25 114 24 162 -1 58 2 73 16 78 9 4 15 9
12 11 -3 3 1 26 7 52 7 29 9 59 4 78 -5 16 -7 37 -5 45 2 8 7 34 11 58 4 23
11 42 16 42 5 0 8 3 7 8 -4 15 14 72 23 72 5 0 9 7 9 16 0 8 4 13 9 9 5 -3 13
5 17 17 3 12 12 28 18 35 29 33 36 43 30 43 -3 0 -2 6 3 13 18 22 31 101 28
166 -2 41 1 72 10 85 7 12 18 44 24 71 14 61 22 351 10 382 -4 12 -22 34 -39
49 -16 15 -30 36 -30 46 0 12 -7 18 -24 18 -14 0 -38 12 -55 26 -41 34 -43 90
-6 130 14 15 25 33 25 40 0 7 3 19 6 28 4 11 1 16 -10 16 -18 0 -23 45 -6 55
6 4 7 12 3 18 -4 7 -8 43 -9 80 -1 47 -7 74 -17 84 -13 14 -16 13 -26 -6 -17
-31 -54 -27 -84 9 -14 16 -28 39 -32 50 -8 26 -41 26 -55 0 -6 -11 -17 -20
-25 -20 -8 0 -15 -4 -15 -10 0 -5 -12 -10 -26 -10 -23 0 -25 3 -20 31 2 17 14
40 25 50 12 11 21 28 21 39 0 10 3 25 6 33 3 8 -6 27 -20 42 -14 15 -26 25
-26 21 0 -4 -9 -2 -20 4 -11 6 -20 15 -20 21 0 6 -26 36 -57 66 -53 52 -60 56
-105 57 -26 0 -48 5 -48 10 0 5 -27 6 -62 2 -60 -6 -64 -5 -95 25 -18 16 -33
35 -33 41 0 6 -6 16 -13 22 -22 18 -79 155 -73 172 4 11 15 15 36 12 17 -3 30
-2 30 2 0 3 14 14 31 24 17 10 28 21 25 24 -3 3 1 13 9 22 15 17 20 32 31 92
7 38 -65 131 -123 159 -24 12 -43 25 -43 31 0 10 -34 7 -92 -7 -15 -4 -48 -4
-73 0 -52 7 -69 30 -40 51 22 16 20 17 -65 14 -36 -1 -77 3 -91 9 -21 8 -36 5
-75 -15z"/>
<path d="M2524 5140 c-15 -16 -31 -27 -35 -24 -5 2 -18 -5 -30 -17 -17 -17
-20 -28 -14 -57 8 -45 12 -52 30 -52 12 0 13 -12 9 -58 -5 -40 -2 -68 9 -94
14 -33 20 -37 62 -44 66 -9 115 14 115 55 0 22 10 38 40 64 32 27 40 41 40 68
0 19 -7 47 -15 63 -8 15 -15 35 -15 42 0 8 -11 19 -25 24 -14 5 -25 14 -25 18
0 11 -77 42 -103 42 -9 0 -29 -13 -43 -30z"/>
<path d="M4990 5080 c-45 -9 -112 -45 -150 -80 -29 -27 -38 -68 -30 -130 5
-41 35 -90 62 -99 15 -6 28 -15 28 -21 0 -22 -21 -50 -32 -44 -6 4 -8 3 -4 -4
3 -6 1 -14 -7 -19 -7 -4 -23 -21 -36 -38 -29 -38 -109 -95 -133 -95 -10 0 -29
7 -41 15 -37 24 -187 35 -207 15 -3 -3 -21 -13 -40 -24 -19 -10 -39 -24 -45
-30 -5 -6 -21 -12 -35 -14 -40 -6 -70 -30 -70 -56 0 -14 -4 -26 -10 -28 -5 -2
-2 -17 7 -35 18 -39 11 -83 -15 -83 -10 0 -26 18 -38 43 -24 46 -59 59 -69 26
-7 -20 -53 -49 -79 -49 -9 0 -18 11 -22 25 -3 14 -12 25 -19 25 -15 0 -65 -94
-65 -122 0 -10 -6 -21 -13 -24 -8 -3 -11 -17 -9 -39 4 -30 1 -35 -17 -35 -17
0 -21 -6 -21 -30 0 -16 5 -40 11 -54 7 -14 9 -40 5 -60 -6 -29 -14 -39 -44
-52 -20 -8 -47 -12 -59 -9 -15 3 -25 -1 -32 -12 -5 -10 -27 -27 -48 -38 -44
-23 -64 -60 -89 -160 -9 -38 -28 -95 -42 -125 -22 -46 -25 -68 -25 -148 0 -70
-3 -95 -13 -99 -8 -3 -11 -9 -9 -14 3 -5 -1 -22 -10 -39 -21 -41 -21 -147 1
-225 24 -89 18 -219 -14 -280 -14 -26 -23 -66 -25 -115 -5 -82 -10 -109 -26
-138 -6 -11 -12 -43 -13 -71 -2 -28 -5 -51 -8 -51 -3 0 -5 -26 -6 -58 0 -32
-7 -74 -16 -93 -9 -19 -26 -79 -38 -134 -19 -90 -23 -153 -18 -295 1 -19 -1
-50 -5 -67 -5 -25 -3 -33 8 -33 8 0 16 -7 16 -15 3 -28 4 -33 12 -41 10 -11 9
-64 -3 -64 -5 0 1 -10 14 -23 26 -26 45 -99 26 -105 -7 -3 -1 -20 15 -47 14
-24 25 -50 25 -57 1 -35 43 -64 98 -67 6 -1 12 -12 12 -26 0 -18 5 -25 18 -25
29 0 81 -29 98 -55 13 -20 30 -30 71 -40 7 -2 26 -13 42 -24 16 -12 37 -21 46
-21 15 0 15 1 1 16 -25 25 -20 54 8 54 37 0 76 -18 76 -35 0 -12 15 -15 79
-15 84 0 111 6 111 22 0 6 16 28 35 50 20 21 33 43 29 49 -3 5 9 39 27 75 28
58 35 65 56 60 27 -7 29 1 8 31 -9 13 -13 32 -10 45 3 13 7 34 9 48 1 14 6 34
10 45 37 95 40 170 10 233 -15 31 -15 37 -1 47 13 9 13 15 -4 50 -23 47 -21
70 5 70 14 0 20 8 20 27 1 15 12 35 26 47 14 11 19 20 13 21 -14 0 -18 40 -4
40 10 0 21 48 12 52 -11 5 -61 84 -61 96 0 8 -17 12 -44 12 -39 0 -47 4 -62
29 -10 16 -28 34 -41 40 -14 7 -21 16 -17 23 4 7 3 8 -4 4 -16 -10 -44 38 -40
71 3 24 8 28 37 31 23 2 35 9 38 23 4 15 14 19 50 19 36 0 46 4 50 20 7 27 46
26 84 -1 18 -12 37 -18 47 -14 9 3 18 6 20 5 2 -1 12 9 22 22 11 13 30 34 43
48 13 14 39 59 57 100 18 41 37 77 42 78 4 2 8 12 8 23 0 11 6 22 14 25 20 8
29 32 31 87 2 56 10 63 77 72 26 4 52 13 59 21 6 7 16 11 22 7 6 -3 7 -1 3 6
-13 21 4 51 29 51 24 0 31 6 205 188 60 63 86 100 82 115 -1 4 3 7 8 7 14 0
129 118 122 125 -3 3 0 5 6 5 7 0 12 6 12 13 0 8 9 24 20 37 11 13 20 28 20
34 0 6 22 46 50 89 40 62 56 79 80 83 16 4 30 13 30 20 0 8 4 14 10 14 5 0 7
6 4 14 -3 8 4 24 15 35 12 12 21 26 21 31 0 6 11 22 24 35 28 28 32 39 41 117
3 32 11 60 16 63 20 13 3 86 -24 106 -10 7 -20 47 -21 85 -1 21 -5 30 -13 27
-7 -3 -13 -10 -13 -15 0 -21 -87 0 -178 42 -50 24 -92 47 -92 53 0 31 -176
-68 -234 -132 -19 -21 -58 -21 -112 -1 -12 5 -25 6 -28 3 -3 -4 -6 -1 -6 5 0
6 6 16 13 21 66 54 89 78 107 115 13 27 30 46 43 50 12 3 30 20 40 38 17 32
17 49 -5 149 -4 20 -20 29 -33 19 -15 -12 -57 0 -51 14 26 61 30 64 75 64 30
0 49 6 57 16 18 26 42 19 49 -14 7 -32 9 -32 99 -34 28 -1 42 -7 53 -23 13
-19 18 -20 46 -11 18 6 47 24 66 40 26 23 36 27 42 16 13 -20 11 -61 -7 -109
-18 -48 -25 -169 -11 -169 9 0 2 -54 -10 -86 -3 -8 1 -14 11 -14 9 0 16 4 16
9 0 12 57 32 73 25 7 -2 28 -31 47 -64 19 -33 38 -60 41 -60 14 0 52 -42 54
-58 1 -9 5 -27 9 -38 6 -20 10 -21 36 -11 17 6 30 17 30 24 0 7 9 17 20 23 11
6 20 8 20 5 0 -11 71 69 96 107 13 20 21 43 19 51 -3 7 6 26 20 43 24 28 29
45 25 91 -1 12 6 38 15 57 19 39 27 123 15 147 -5 8 -10 27 -12 41 -5 36 -24
56 -61 63 -18 4 -41 17 -52 30 -19 22 -101 55 -136 55 -10 0 -35 -11 -55 -25
-57 -39 -94 -34 -147 20 -25 25 -52 45 -61 45 -8 0 -25 15 -37 33 -13 17 -28
35 -34 39 -6 5 -6 8 0 8 28 0 -37 28 -76 32 -26 3 -61 13 -79 22 -44 22 -47
21 -42 -14 4 -29 3 -30 -35 -30 -26 0 -53 9 -76 24 -45 30 -64 35 -107 26z"/>
<path d="M4510 5049 c-82 -13 -100 -21 -100 -39 0 -10 -11 -25 -24 -33 -26
-18 -42 -76 -28 -104 29 -55 34 -74 28 -98 -9 -36 6 -52 67 -70 50 -15 52 -15
74 9 25 27 53 89 53 117 0 11 7 19 15 19 20 0 63 70 57 93 -2 10 -13 22 -23
28 -11 5 -19 19 -19 30 0 42 -35 58 -100 48z"/>
<path d="M2828 4853 c-9 -10 -24 -34 -34 -53 -11 -19 -29 -45 -41 -58 -20 -19
-30 -58 -23 -87 2 -5 2 -18 2 -27 0 -10 3 -18 9 -18 5 0 9 -4 9 -9 0 -13 61
-74 93 -95 16 -10 35 -33 43 -52 20 -47 50 -44 46 4 -3 39 18 51 54 32 21 -12
26 -11 39 6 58 73 73 153 50 254 -8 38 -63 75 -137 93 -16 4 -28 12 -28 17 0
17 -66 11 -82 -7z"/>
<path d="M4110 4855 l-75 -10 -38 -55 c-31 -46 -38 -66 -42 -119 -7 -86 9
-131 46 -131 35 0 45 -15 28 -46 -9 -19 -10 -27 -1 -36 9 -9 21 -3 49 25 32
32 61 44 96 38 4 0 7 3 7 9 0 5 13 16 29 25 40 20 74 70 73 108 0 35 -19 129
-32 163 -13 33 -55 41 -140 29z"/>
</g>
</svg>
